<svg id="visual" viewBox="0 0 960 100" width="960" height="100" xmlns="http://www.w3.org/2000/svg" xmlns:xlink="http://www.w3.org/1999/xlink" version="1.1"><rect x="0" y="0" width="960" height="100" fill="#140B73"></rect><path d="M0 40L10.7 42C21.3 44 42.7 48 64 49.8C85.3 51.7 106.7 51.3 128 49.7C149.3 48 170.7 45 192 41.5C213.3 38 234.7 34 256 32.7C277.3 31.3 298.7 32.7 320 33.2C341.3 33.7 362.7 33.3 384 31.7C405.3 30 426.7 27 448 28.7C469.3 30.3 490.7 36.7 512 37.8C533.3 39 554.7 35 576 35.8C597.3 36.7 618.7 42.3 640 42.7C661.3 43 682.7 38 704 41C725.3 44 746.7 55 768 60.7C789.3 66.3 810.7 66.7 832 65.5C853.3 64.3 874.7 61.7 896 60.7C917.3 59.7 938.7 60.3 949.3 60.7L960 61L960 101L949.3 101C938.7 101 917.3 101 896 101C874.7 101 853.3 101 832 101C810.7 101 789.3 101 768 101C746.7 101 725.3 101 704 101C682.7 101 661.3 101 640 101C618.7 101 597.3 101 576 101C554.7 101 533.3 101 512 101C490.7 101 469.3 101 448 101C426.7 101 405.3 101 384 101C362.7 101 341.3 101 320 101C298.7 101 277.3 101 256 101C234.7 101 213.3 101 192 101C170.7 101 149.3 101 128 101C106.7 101 85.3 101 64 101C42.7 101 21.3 101 10.7 101L0 101Z" fill="#140b73"></path><path d="M0 47L10.7 46.7C21.3 46.3 42.7 45.7 64 49.8C85.3 54 106.7 63 128 62.5C149.3 62 170.7 52 192 50.8C213.3 49.7 234.7 57.3 256 56.7C277.3 56 298.7 47 320 47C341.3 47 362.7 56 384 60.3C405.3 64.7 426.7 64.3 448 65.5C469.3 66.7 490.7 69.3 512 67.2C533.3 65 554.7 58 576 56.3C597.3 54.7 618.7 58.3 640 57.8C661.3 57.3 682.7 52.7 704 54.3C725.3 56 746.7 64 768 64.7C789.3 65.3 810.7 58.7 832 56.3C853.3 54 874.7 56 896 57.8C917.3 59.7 938.7 61.3 949.3 62.2L960 63L960 101L949.3 101C938.7 101 917.3 101 896 101C874.7 101 853.3 101 832 101C810.7 101 789.3 101 768 101C746.7 101 725.3 101 704 101C682.7 101 661.3 101 640 101C618.7 101 597.3 101 576 101C554.7 101 533.3 101 512 101C490.7 101 469.3 101 448 101C426.7 101 405.3 101 384 101C362.7 101 341.3 101 320 101C298.7 101 277.3 101 256 101C234.7 101 213.3 101 192 101C170.7 101 149.3 101 128 101C106.7 101 85.3 101 64 101C42.7 101 21.3 101 10.7 101L0 101Z" fill="#2f0973"></path><path d="M0 72L10.7 72.3C21.3 72.7 42.7 73.3 64 69.2C85.3 65 106.7 56 128 55.8C149.3 55.7 170.7 64.3 192 67.3C213.3 70.3 234.7 67.7 256 64.3C277.3 61 298.7 57 320 55.7C341.3 54.3 362.7 55.7 384 59.8C405.3 64 426.7 71 448 75.2C469.3 79.3 490.7 80.7 512 76.7C533.3 72.7 554.7 63.3 576 59.8C597.3 56.3 618.7 58.7 640 58.2C661.3 57.7 682.7 54.3 704 53.5C725.3 52.7 746.7 54.3 768 58C789.3 61.7 810.7 67.3 832 66.7C853.3 66 874.7 59 896 59.7C917.3 60.3 938.7 68.7 949.3 72.8L960 77L960 101L949.3 101C938.7 101 917.3 101 896 101C874.7 101 853.3 101 832 101C810.7 101 789.3 101 768 101C746.7 101 725.3 101 704 101C682.7 101 661.3 101 640 101C618.7 101 597.3 101 576 101C554.7 101 533.3 101 512 101C490.7 101 469.3 101 448 101C426.7 101 405.3 101 384 101C362.7 101 341.3 101 320 101C298.7 101 277.3 101 256 101C234.7 101 213.3 101 192 101C170.7 101 149.3 101 128 101C106.7 101 85.3 101 64 101C42.7 101 21.3 101 10.7 101L0 101Z" fill="#410773"></path><path d="M0 75L10.7 75.5C21.3 76 42.7 77 64 78.3C85.3 79.7 106.7 81.3 128 79.8C149.3 78.3 170.7 73.7 192 73.8C213.3 74 234.7 79 256 81.3C277.3 83.7 298.7 83.3 320 82.2C341.3 81 362.7 79 384 78.8C405.3 78.7 426.7 80.3 448 78.3C469.3 76.3 490.7 70.7 512 70.8C533.3 71 554.7 77 576 80.8C597.3 84.7 618.7 86.3 640 84.3C661.3 82.3 682.7 76.7 704 73C725.3 69.3 746.7 67.7 768 67.8C789.3 68 810.7 70 832 71.7C853.3 73.3 874.7 74.7 896 76.8C917.3 79 938.7 82 949.3 83.5L960 85L960 101L949.3 101C938.7 101 917.3 101 896 101C874.7 101 853.3 101 832 101C810.7 101 789.3 101 768 101C746.7 101 725.3 101 704 101C682.7 101 661.3 101 640 101C618.7 101 597.3 101 576 101C554.7 101 533.3 101 512 101C490.7 101 469.3 101 448 101C426.7 101 405.3 101 384 101C362.7 101 341.3 101 320 101C298.7 101 277.3 101 256 101C234.7 101 213.3 101 192 101C170.7 101 149.3 101 128 101C106.7 101 85.3 101 64 101C42.7 101 21.3 101 10.7 101L0 101Z" fill="#500673"></path><path d="M0 84L10.7 84.8C21.3 85.7 42.7 87.3 64 89.2C85.3 91 106.7 93 128 93C149.3 93 170.7 91 192 90.2C213.3 89.3 234.7 89.7 256 87C277.3 84.3 298.7 78.7 320 79.2C341.3 79.7 362.7 86.3 384 90.7C405.3 95 426.7 97 448 93.7C469.3 90.3 490.7 81.7 512 81.3C533.3 81 554.7 89 576 89.3C597.3 89.7 618.7 82.3 640 79.7C661.3 77 682.7 79 704 81.2C725.3 83.3 746.7 85.7 768 87.5C789.3 89.3 810.7 90.7 832 89.8C853.3 89 874.7 86 896 83.7C917.3 81.3 938.7 79.7 949.3 78.8L960 78L960 101L949.3 101C938.7 101 917.3 101 896 101C874.7 101 853.3 101 832 101C810.7 101 789.3 101 768 101C746.7 101 725.3 101 704 101C682.7 101 661.3 101 640 101C618.7 101 597.3 101 576 101C554.7 101 533.3 101 512 101C490.7 101 469.3 101 448 101C426.7 101 405.3 101 384 101C362.7 101 341.3 101 320 101C298.7 101 277.3 101 256 101C234.7 101 213.3 101 192 101C170.7 101 149.3 101 128 101C106.7 101 85.3 101 64 101C42.7 101 21.3 101 10.7 101L0 101Z" fill="#5d0673"></path></svg>