<svg width="6450" height="5757" viewBox="0 0 6450 5757" fill="none" xmlns="http://www.w3.org/2000/svg">
<rect width="6450" height="5757" fill="white"/>
<path d="M2541 3366.5C2541 3423.11 2495.11 3469 2438.5 3469C2381.89 3469 2336 3423.11 2336 3366.5C2336 3309.89 2381.89 3264 2438.5 3264C2495.11 3264 2541 3309.89 2541 3366.5Z" fill="#A3A3A3"/>
<path d="M2541 3366.5C2541 3423.11 2495.11 3469 2438.5 3469C2381.89 3469 2336 3423.11 2336 3366.5C2336 3309.89 2381.89 3264 2438.5 3264C2495.11 3264 2541 3309.89 2541 3366.5Z" fill="#A3A3A3"/>
<path d="M2384.53 3296.02C2384.05 3296.83 2383.44 3297.57 2382.93 3298.36C2382.64 3298.51 2382.4 3298.81 2382.28 3299.11C2382.08 3299.65 2381.58 3300.41 2381.1 3300.74C2379.44 3301.89 2378.32 3304.14 2379.47 3306.04C2380.01 3306.95 2380.66 3307.51 2381.74 3307.47C2383.17 3307.43 2384.45 3306.88 2385.75 3306.35C2387.51 3305.64 2389.3 3304.92 2391.17 3304.57C2393.09 3304.22 2395.58 3303.96 2397.39 3304.84C2400.45 3306.31 2401.2 3310.35 2404.21 3311.97C2407.89 3313.95 2412.66 3312.73 2416.28 3311.2C2418.06 3310.45 2420.07 3309.36 2420.8 3307.47C2421.4 3305.91 2421.16 3304.15 2421.34 3302.52C2421.8 3298.54 2425.29 3295.88 2429.15 3295.55C2430.38 3295.45 2431 3294.99 2431.56 3293.85C2432.39 3292.18 2431.89 3290.37 2431.33 3288.69C2429.94 3284.46 2425.57 3282.83 2421.5 3282.25C2418.15 3281.77 2414.32 3281.81 2411.46 3283.83C2408.78 3285.72 2406.08 3288.68 2402.55 3288.74C2400.97 3288.77 2399.33 3288.63 2397.82 3288.15C2396.45 3287.72 2395.21 3287.09 2393.75 3286.97C2392.52 3286.88 2391.33 3287.07 2390.23 3287.66C2388.8 3288.44 2387.86 3290.03 2387.02 3291.36C2386.08 3292.86 2385.43 3294.51 2384.53 3296.02Z" fill="#606060"/>
<path d="M2382.91 3298.39C2383.43 3297.59 2384.04 3296.84 2384.53 3296.02C2385.43 3294.51 2386.08 3292.86 2387.02 3291.36C2387.86 3290.03 2388.8 3288.44 2390.23 3287.66C2391.33 3287.07 2392.52 3286.88 2393.75 3286.97C2395.21 3287.09 2396.45 3287.72 2397.82 3288.15C2399.33 3288.63 2400.97 3288.77 2402.55 3288.74C2406.08 3288.68 2408.78 3285.72 2411.46 3283.83C2414.32 3281.81 2418.15 3281.77 2421.5 3282.25C2425.57 3282.83 2429.94 3284.46 2431.33 3288.69C2431.89 3290.37 2432.39 3292.18 2431.56 3293.85C2431 3294.99 2430.38 3295.45 2429.15 3295.55C2425.29 3295.88 2421.8 3298.54 2421.34 3302.52C2421.16 3304.15 2421.4 3305.91 2420.8 3307.47C2420.07 3309.36 2418.06 3310.45 2416.28 3311.2C2412.66 3312.73 2407.89 3313.95 2404.21 3311.97C2401.2 3310.35 2400.45 3306.31 2397.39 3304.84C2395.58 3303.96 2393.09 3304.22 2391.17 3304.57C2389.3 3304.92 2387.51 3305.64 2385.75 3306.35C2384.45 3306.88 2383.17 3307.43 2381.74 3307.47C2380.66 3307.51 2380.01 3306.95 2379.47 3306.04C2378.32 3304.14 2379.44 3301.89 2381.1 3300.74C2381.58 3300.41 2382.08 3299.65 2382.28 3299.11C2382.42 3298.75 2382.74 3298.38 2383.11 3298.29" stroke="#606060" stroke-width="3" stroke-linecap="round"/>
<path d="M2377.2 3345.49C2378.97 3345.81 2381.06 3346.36 2382.8 3345.67C2382.6 3345.63 2382.52 3345.47 2382.64 3345.24C2382.8 3344.92 2383.02 3344.75 2383.33 3344.55C2383.91 3344.16 2384.24 3343.48 2384.74 3342.99C2385.43 3342.34 2386.04 3342.18 2387 3342.31C2388.31 3342.49 2389.29 3343.63 2390.28 3344.37C2391.47 3345.26 2393.43 3346.34 2394.97 3345.57C2396.5 3344.8 2397.36 3343.08 2396.85 3341.48C2396.6 3340.67 2396.03 3339.97 2395.47 3339.34C2394.8 3338.6 2394.13 3337.8 2393.29 3337.23C2392.83 3336.9 2392.17 3336.46 2391.56 3336.53C2391.02 3336.59 2390.48 3336.9 2390.02 3337.15C2388.87 3337.78 2387.74 3338.49 2386.39 3337.94C2384.87 3337.31 2384.47 3335.53 2383.71 3334.29C2382.71 3332.63 2380.99 3331.81 2379.02 3332.04C2376.54 3332.33 2374.48 3333.62 2372.94 3335.5C2372.18 3336.42 2371.39 3337.43 2371.1 3338.6C2370.86 3339.59 2371.07 3340.69 2371.48 3341.62C2372.48 3343.89 2374.83 3345.05 2377.2 3345.49Z" fill="#606060"/>
<path d="M2383.07 3345.55C2381.28 3346.42 2379.06 3345.83 2377.2 3345.49C2374.83 3345.05 2372.48 3343.89 2371.48 3341.62C2371.07 3340.69 2370.86 3339.59 2371.1 3338.6C2371.39 3337.43 2372.18 3336.42 2372.94 3335.5C2374.48 3333.62 2376.54 3332.33 2379.02 3332.04C2380.99 3331.81 2382.71 3332.63 2383.71 3334.29C2384.47 3335.53 2384.87 3337.31 2386.39 3337.94C2387.74 3338.49 2388.87 3337.78 2390.02 3337.15C2390.48 3336.9 2391.02 3336.59 2391.56 3336.53C2392.17 3336.46 2392.83 3336.9 2393.29 3337.23C2394.13 3337.8 2394.8 3338.6 2395.47 3339.34C2396.03 3339.97 2396.6 3340.67 2396.85 3341.48C2397.36 3343.08 2396.5 3344.8 2394.97 3345.57C2393.43 3346.34 2391.47 3345.26 2390.28 3344.37C2389.29 3343.63 2388.31 3342.49 2387 3342.31C2386.04 3342.18 2385.43 3342.34 2384.74 3342.99C2384.24 3343.48 2383.91 3344.16 2383.33 3344.55C2383.02 3344.75 2382.8 3344.92 2382.64 3345.24C2382.5 3345.5 2382.62 3345.67 2382.88 3345.67" stroke="#606060" stroke-width="3" stroke-linecap="round"/>
<path d="M2444.78 3325.46C2444.68 3325.63 2443.95 3326.64 2443.81 3327.11C2443.58 3327.22 2443.38 3327.33 2443.24 3327.58C2443.01 3328 2442.6 3328.11 2442.19 3328.32C2440.72 3329.05 2438.36 3328.56 2436.81 3328.52C2434.44 3328.45 2432.04 3328.34 2429.68 3328.06C2424.16 3327.4 2418.74 3326.06 2413.19 3325.66C2410.88 3325.5 2408.12 3325.31 2405.94 3326.28C2405.15 3326.63 2404.43 3327.25 2403.67 3327.69C2402.96 3328.09 2402.54 3328.5 2402.1 3329.2C2400.17 3332.29 2401.52 3335.79 2402.3 3338.99C2402.57 3340.07 2402.55 3341.18 2402.84 3342.26C2403.07 3343.1 2403.25 3343.96 2403.35 3344.83C2403.53 3346.47 2403.94 3347.93 2403.7 3349.61C2403.24 3352.94 2400.87 3355.56 2397.9 3356.95C2396.32 3357.68 2394.5 3358.66 2393.37 3360.02C2391.98 3361.69 2391.69 3363.51 2392.31 3365.62C2393.08 3368.21 2395.32 3370.73 2397.18 3372.58C2399.21 3374.58 2402.27 3374.99 2404.93 3374.21C2408.92 3373.03 2412.83 3370.8 2417.1 3371.44C2418.98 3371.73 2420.81 3372.59 2422.55 3373.3C2424.83 3374.24 2427.21 3374.89 2429.5 3375.8C2431.4 3376.55 2433.11 3377.4 2434.51 3378.91C2435.26 3379.72 2435.94 3380.59 2436.74 3381.36C2439.07 3383.6 2442.04 3383.59 2445.11 3383.88C2449.75 3384.31 2454.7 3383.54 2459.19 3382.37C2463.01 3381.38 2466.4 3379.7 2469.69 3377.53C2473.65 3374.91 2475.76 3370.63 2478.89 3367.19C2480.35 3365.58 2482.12 3364.17 2484.05 3363.17C2486.13 3362.09 2488.52 3361.83 2490.77 3361.29C2495.76 3360.09 2501.25 3358.18 2504.17 3353.71C2505.89 3351.08 2507.53 3348.09 2507.86 3344.93C2508.14 3342.36 2508.01 3339.62 2507.31 3337.12C2506.42 3333.96 2504.14 3329.19 2500.44 3328.72C2496.45 3328.22 2492.66 3329.05 2488.69 3329.05C2484.4 3329.05 2481.11 3327.06 2479.17 3323.21C2477.84 3320.58 2477.02 3317.77 2475.42 3315.27C2474.24 3313.44 2473.02 3311.79 2470.8 3311.33C2463.91 3309.91 2457.41 3313.31 2452.19 3317.47C2449.31 3319.77 2446.65 3322.24 2444.78 3325.46Z" fill="#606060"/>
<path d="M2443.8 3327.31C2443.64 3327.07 2444.66 3325.66 2444.78 3325.46C2446.65 3322.24 2449.31 3319.77 2452.19 3317.47C2457.41 3313.31 2463.91 3309.91 2470.8 3311.33C2473.02 3311.79 2474.24 3313.44 2475.42 3315.27C2477.02 3317.77 2477.84 3320.58 2479.17 3323.21C2481.11 3327.06 2484.4 3329.05 2488.69 3329.05C2492.66 3329.05 2496.45 3328.22 2500.44 3328.72C2504.14 3329.19 2506.42 3333.96 2507.31 3337.12C2508.01 3339.62 2508.14 3342.36 2507.86 3344.93C2507.53 3348.09 2505.89 3351.08 2504.17 3353.71C2501.25 3358.18 2495.76 3360.09 2490.77 3361.29C2488.52 3361.83 2486.13 3362.09 2484.05 3363.17C2482.12 3364.17 2480.35 3365.58 2478.89 3367.19C2475.76 3370.63 2473.65 3374.91 2469.69 3377.53C2466.4 3379.7 2463.01 3381.38 2459.19 3382.37C2454.7 3383.54 2449.75 3384.31 2445.11 3383.88C2442.04 3383.59 2439.07 3383.6 2436.74 3381.36C2435.94 3380.59 2435.26 3379.72 2434.51 3378.91C2433.11 3377.4 2431.4 3376.55 2429.5 3375.8C2427.21 3374.89 2424.83 3374.24 2422.55 3373.3C2420.81 3372.59 2418.98 3371.73 2417.1 3371.44C2412.83 3370.8 2408.92 3373.03 2404.93 3374.21C2402.27 3374.99 2399.21 3374.58 2397.18 3372.58C2395.32 3370.73 2393.08 3368.21 2392.31 3365.62C2391.69 3363.51 2391.98 3361.69 2393.37 3360.02C2394.5 3358.66 2396.32 3357.68 2397.9 3356.95C2400.87 3355.56 2403.24 3352.94 2403.7 3349.61C2403.94 3347.93 2403.53 3346.47 2403.35 3344.83C2403.25 3343.96 2403.07 3343.1 2402.84 3342.26C2402.55 3341.18 2402.57 3340.07 2402.3 3338.99C2401.52 3335.79 2400.17 3332.29 2402.1 3329.2C2402.54 3328.5 2402.96 3328.09 2403.67 3327.69C2404.43 3327.25 2405.15 3326.63 2405.94 3326.28C2408.12 3325.31 2410.88 3325.5 2413.19 3325.66C2418.74 3326.06 2424.16 3327.4 2429.68 3328.06C2432.04 3328.34 2434.44 3328.45 2436.81 3328.52C2438.36 3328.56 2440.72 3329.05 2442.19 3328.32C2442.6 3328.11 2443.01 3328 2443.24 3327.58C2443.41 3327.28 2443.66 3327.19 2443.94 3327.05" stroke="#606060" stroke-width="3" stroke-linecap="round"/>
<path d="M2450.15 3293.69C2450.61 3293.85 2452.85 3294.39 2453.01 3293.5C2453.23 3293.26 2453.79 3293.44 2454.12 3293.39C2454.81 3293.28 2455.62 3292.78 2456.01 3292.19C2456.62 3291.26 2457.23 3290.26 2456.91 3289.07C2456.74 3288.41 2456.44 3287.54 2456.05 3286.99C2455.68 3286.47 2454.88 3286.28 2454.31 3286.12C2452.72 3285.67 2450.74 3286.6 2449.33 3287.23C2447.67 3287.97 2446.53 3289.33 2447.19 3291.27C2447.7 3292.76 2448.79 3293.23 2450.15 3293.69Z" fill="#414141" stroke="#414141" stroke-width="3" stroke-linecap="round"/>
<path d="M2440.89 3300.69C2441.17 3300.85 2442.51 3301.39 2442.6 3300.5C2442.74 3300.26 2443.07 3300.44 2443.27 3300.39C2443.69 3300.28 2444.17 3299.78 2444.41 3299.19C2444.77 3298.26 2445.14 3297.26 2444.95 3296.07C2444.84 3295.41 2444.67 3294.54 2444.43 3293.99C2444.21 3293.47 2443.73 3293.28 2443.38 3293.12C2442.43 3292.67 2441.25 3293.6 2440.4 3294.23C2439.4 3294.97 2438.72 3296.33 2439.11 3298.27C2439.42 3299.76 2440.07 3300.23 2440.89 3300.69Z" fill="#414141" stroke="#414141" stroke-width="3" stroke-linecap="round"/>
<path d="M2487.54 3316.63C2487.67 3316.72 2488.3 3317.26 2488.46 3317.29C2488.75 3317.88 2489 3318.51 2489.35 3319.07C2490.01 3320.1 2491 3320.21 2492.04 3319.71C2492.4 3319.54 2493.17 3319.47 2492.84 3318.95C2492.51 3318.43 2492.15 3317.96 2491.99 3317.35C2491.66 3316.05 2493.04 3315.48 2493.41 3314.4C2493.76 3313.39 2494.18 3312.58 2493.92 3311.49C2493.6 3310.18 2493 3309.04 2492.15 3307.98C2491.38 3307.01 2490.71 3306.24 2489.43 3306.07C2487.97 3305.89 2486.48 3306.06 2485.08 3306.46C2483.59 3306.89 2481.78 3307.73 2481.17 3309.26C2480.67 3310.51 2481.38 3311.91 2482.15 3312.86C2483.16 3314.11 2484.56 3315.04 2485.98 3315.76C2486.51 3316.03 2487.05 3316.3 2487.54 3316.63Z" fill="#606060"/>
<path d="M2488.46 3317.29C2488.3 3317.26 2487.67 3316.72 2487.54 3316.63C2487.05 3316.3 2486.51 3316.03 2485.98 3315.76C2484.56 3315.04 2483.16 3314.11 2482.15 3312.86C2481.38 3311.91 2480.67 3310.51 2481.17 3309.26C2481.78 3307.73 2483.59 3306.89 2485.08 3306.46C2486.48 3306.06 2487.97 3305.89 2489.43 3306.07C2490.71 3306.24 2491.38 3307.01 2492.15 3307.98C2493 3309.04 2493.6 3310.18 2493.92 3311.49C2494.18 3312.58 2493.76 3313.39 2493.41 3314.4C2493.04 3315.48 2491.66 3316.05 2491.99 3317.35C2492.15 3317.96 2492.51 3318.43 2492.84 3318.95C2493.17 3319.47 2492.4 3319.54 2492.04 3319.71C2491 3320.21 2490.01 3320.1 2489.35 3319.07C2489 3318.51 2488.75 3317.88 2488.46 3317.29ZM2488.46 3317.29C2488.38 3317.14 2487.54 3316.63 2488.14 3316.76" stroke="#606060" stroke-width="3" stroke-linecap="round"/>
<path d="M2492.04 3426.87C2492.15 3426.95 2492.74 3427.46 2492.88 3427.48C2493.15 3428.03 2493.38 3428.62 2493.71 3429.14C2494.32 3430.09 2495.23 3430.2 2496.19 3429.73C2496.52 3429.58 2497.23 3429.51 2496.93 3429.03C2496.62 3428.55 2496.29 3428.1 2496.15 3427.54C2495.84 3426.33 2497.11 3425.8 2497.46 3424.8C2497.78 3423.86 2498.17 3423.11 2497.92 3422.1C2497.63 3420.88 2497.08 3419.82 2496.3 3418.84C2495.58 3417.94 2494.96 3417.22 2493.78 3417.07C2492.44 3416.9 2491.06 3417.06 2489.77 3417.43C2488.39 3417.82 2486.72 3418.6 2486.15 3420.03C2485.69 3421.19 2486.35 3422.49 2487.06 3423.37C2487.99 3424.53 2489.29 3425.4 2490.6 3426.07C2491.09 3426.32 2491.58 3426.56 2492.04 3426.87Z" fill="#606060"/>
<path d="M2492.88 3427.48C2492.74 3427.46 2492.15 3426.95 2492.04 3426.87C2491.58 3426.56 2491.09 3426.32 2490.6 3426.07C2489.29 3425.4 2487.99 3424.53 2487.06 3423.37C2486.35 3422.49 2485.69 3421.19 2486.15 3420.03C2486.72 3418.6 2488.39 3417.82 2489.77 3417.43C2491.06 3417.06 2492.44 3416.9 2493.78 3417.07C2494.96 3417.22 2495.58 3417.94 2496.3 3418.84C2497.08 3419.82 2497.63 3420.88 2497.92 3422.1C2498.17 3423.11 2497.78 3423.86 2497.46 3424.8C2497.11 3425.8 2495.84 3426.33 2496.15 3427.54C2496.29 3428.1 2496.62 3428.55 2496.93 3429.03C2497.23 3429.51 2496.52 3429.58 2496.19 3429.73C2495.23 3430.2 2494.32 3430.09 2493.71 3429.14C2493.38 3428.62 2493.15 3428.03 2492.88 3427.48ZM2492.88 3427.48C2492.81 3427.34 2492.04 3426.87 2492.59 3426.99" stroke="#606060" stroke-width="3" stroke-linecap="round"/>
<path d="M2484.24 3367.42C2484.33 3367.35 2484.4 3367.32 2484.52 3367.33C2484.61 3367.33 2484.64 3367.29 2484.71 3367.24C2484.91 3367.08 2484.47 3366.61 2484.4 3366.5C2484.16 3366.11 2484.21 3365.55 2484.46 3365.17C2484.58 3364.99 2484.8 3365 2484.99 3365C2485.37 3365 2485.74 3365.01 2486.11 3365.09C2486.54 3365.18 2487.04 3365.31 2487.38 3365.59C2487.66 3365.82 2488.02 3366.22 2488.41 3366.28C2488.52 3366.3 2488.59 3366.24 2488.68 3366.19C2488.96 3366.03 2489.24 3365.87 2489.52 3365.72C2489.94 3365.5 2490.53 3365.8 2490.89 3366.01C2491.43 3366.33 2492.04 3366.91 2492 3367.58C2491.98 3367.87 2491.88 3368.17 2491.62 3368.34C2491.31 3368.54 2490.94 3368.61 2490.57 3368.63C2490.14 3368.66 2489.71 3368.61 2489.27 3368.59C2488.97 3368.59 2488.63 3368.57 2488.37 3368.73C2488.07 3368.92 2487.94 3369.17 2487.88 3369.5C2487.83 3369.84 2487.78 3370.19 2487.64 3370.5C2487.33 3371.19 2486.56 3371.81 2485.8 3371.96C2485.25 3372.07 2484.67 3371.92 2484.18 3371.7C2483.84 3371.54 2483.54 3371.31 2483.33 3371.02C2483.16 3370.76 2483.01 3370.5 2483 3370.19C2482.99 3369.82 2483.01 3369.45 2483.14 3369.1C2483.27 3368.76 2483.45 3368.4 2483.64 3368.08C2483.78 3367.84 2484.01 3367.59 2484.24 3367.42Z" fill="#7E7E7E" stroke="#7E7E7E" stroke-width="3" stroke-linecap="round"/>
<path d="M2390.84 3423.26C2391 3423.44 2391.5 3423.79 2391.65 3424.06C2391.53 3424.3 2391.87 3425.37 2391.9 3425.54C2392.12 3427.05 2391.83 3428.43 2390.98 3429.73C2390.46 3430.51 2389.47 3431.36 2388.54 3431.59C2387.46 3431.84 2386.21 3431.37 2385.3 3430.84C2384.71 3430.51 2384.24 3430.01 2383.85 3429.47C2383.65 3429.2 2383.66 3428.92 2383.54 3428.62C2383.18 3427.74 2382.85 3426.88 2382.32 3426.07C2381.78 3425.23 2381.35 3424.85 2380.32 3425C2379.85 3425.07 2379.28 3425.11 2378.84 3425.31C2378.53 3425.45 2378.4 3425.86 2378.32 3426.16C2378.16 3426.74 2378.29 3427.33 2378.4 3427.9C2378.5 3428.47 2378.5 3429.05 2378.62 3429.61C2378.98 3431.26 2379.22 3432.93 2379.3 3434.61C2379.33 3435.22 2379.34 3436.16 2378.89 3436.64C2378.54 3437.03 2377.85 3437.04 2377.37 3436.96C2375.69 3436.7 2374.4 3435.03 2373.45 3433.77C2372.2 3432.12 2371.95 3430.31 2372.24 3428.3C2372.55 3426.14 2373.61 3424.08 2373.47 3421.87C2373.32 3419.38 2371.65 3417.3 2369.37 3416.34C2367.46 3415.54 2365.31 3415.21 2364.34 3413.18C2363.88 3412.23 2363.97 3411.01 2364.11 3409.99C2364.27 3408.78 2364.45 3407.56 2365.19 3406.54C2366.62 3404.59 2368.84 3404.12 2371.14 3404.16C2372.62 3404.18 2374.14 3404.33 2375.62 3404.12C2376.83 3403.95 2377.9 3403.51 2378.97 3402.94C2380.9 3401.93 2382.61 3400.7 2384.27 3399.31C2385.19 3398.53 2386.23 3397.68 2387.37 3397.23C2388.06 3396.97 2388.82 3396.98 2389.55 3397.02C2390.5 3397.06 2391.44 3397.31 2392.34 3397.62C2393.28 3397.96 2394.24 3398.19 2395.2 3398.48C2396.68 3398.92 2398.13 3399.53 2399.53 3400.17C2400.72 3400.71 2401.77 3401.26 2402.09 3402.59C2402.36 3403.67 2402.34 3404.85 2402.47 3405.95C2402.66 3407.5 2403.13 3409.05 2402.97 3410.62C2402.76 3412.63 2400.55 3413.75 2398.64 3413.57C2396.98 3413.42 2395.87 3412.6 2394.61 3411.61C2393.43 3410.68 2391.93 3410.27 2390.44 3410.56C2388.81 3410.87 2387.13 3412.66 2386.92 3414.27C2386.82 3415.1 2387.06 3415.99 2387.27 3416.78C2387.62 3418.07 2388.14 3419.38 2388.81 3420.54C2389.39 3421.52 2390.06 3422.44 2390.84 3423.26Z" fill="#606060"/>
<path d="M2391.69 3424.15C2391.63 3423.89 2391.02 3423.46 2390.84 3423.26C2390.06 3422.44 2389.39 3421.52 2388.81 3420.54C2388.14 3419.38 2387.62 3418.07 2387.27 3416.78C2387.06 3415.99 2386.82 3415.1 2386.92 3414.27C2387.13 3412.66 2388.81 3410.87 2390.44 3410.56C2391.93 3410.27 2393.43 3410.68 2394.61 3411.61C2395.87 3412.6 2396.98 3413.42 2398.64 3413.57C2400.55 3413.75 2402.76 3412.63 2402.97 3410.62C2403.13 3409.05 2402.66 3407.5 2402.47 3405.95C2402.34 3404.85 2402.36 3403.67 2402.09 3402.59C2401.77 3401.26 2400.72 3400.71 2399.53 3400.17C2398.13 3399.53 2396.68 3398.92 2395.2 3398.48C2394.24 3398.19 2393.28 3397.96 2392.34 3397.62C2391.44 3397.31 2390.5 3397.06 2389.55 3397.02C2388.82 3396.98 2388.06 3396.97 2387.37 3397.23C2386.23 3397.68 2385.19 3398.53 2384.27 3399.31C2382.61 3400.7 2380.9 3401.93 2378.97 3402.94C2377.9 3403.51 2376.83 3403.95 2375.62 3404.12C2374.14 3404.33 2372.62 3404.18 2371.14 3404.16C2368.84 3404.12 2366.62 3404.59 2365.19 3406.54C2364.45 3407.56 2364.27 3408.78 2364.11 3409.99C2363.97 3411.01 2363.88 3412.23 2364.34 3413.18C2365.31 3415.21 2367.46 3415.54 2369.37 3416.34C2371.65 3417.3 2373.32 3419.38 2373.47 3421.87C2373.61 3424.08 2372.55 3426.14 2372.24 3428.3C2371.95 3430.31 2372.2 3432.12 2373.45 3433.77C2374.4 3435.03 2375.69 3436.7 2377.37 3436.96C2377.85 3437.04 2378.54 3437.03 2378.89 3436.64C2379.34 3436.16 2379.33 3435.22 2379.3 3434.61C2379.22 3432.93 2378.98 3431.26 2378.62 3429.61C2378.5 3429.05 2378.5 3428.47 2378.4 3427.9C2378.29 3427.33 2378.16 3426.74 2378.32 3426.16C2378.4 3425.86 2378.53 3425.45 2378.84 3425.31C2379.28 3425.11 2379.85 3425.07 2380.32 3425C2381.35 3424.85 2381.78 3425.23 2382.32 3426.07C2382.85 3426.88 2383.18 3427.74 2383.54 3428.62C2383.66 3428.92 2383.65 3429.2 2383.85 3429.47C2384.24 3430.01 2384.71 3430.51 2385.3 3430.84C2386.21 3431.37 2387.46 3431.84 2388.54 3431.59C2389.47 3431.36 2390.46 3430.51 2390.98 3429.73C2391.83 3428.43 2392.12 3427.05 2391.9 3425.54C2391.87 3425.35 2391.47 3424.12 2391.69 3424.01" stroke="#606060" stroke-width="3" stroke-linecap="round"/>
<path d="M2409.57 3387.81C2407.84 3387.65 2406.23 3387.15 2404.58 3386.6C2404.28 3386.54 2404.58 3386.47 2404.27 3386.47C2404.1 3386.47 2404.01 3386.48 2403.87 3386.37C2403.63 3386.17 2403.25 3386.2 2402.96 3386.2C2402.47 3386.2 2402.19 3386.27 2401.95 3386.74C2401.65 3387.31 2401.19 3387.8 2401.03 3388.43C2400.85 3389.15 2401.47 3389.91 2401.84 3390.46C2402.51 3391.45 2403.19 3392.35 2404.11 3393.14C2404.8 3393.75 2405.42 3394.23 2406.24 3394.66C2407.01 3395.05 2407.79 3395.53 2408.52 3395.99C2410.32 3397.14 2411.53 3398.76 2411.81 3400.89C2412.04 3402.62 2411.6 3404.39 2410.9 3405.95C2410.09 3407.77 2408.33 3408.92 2407.46 3410.67C2406.61 3412.38 2407.03 3414.36 2407.56 3416.11C2408.04 3417.72 2408.57 3419.39 2410.12 3420.24C2411.19 3420.84 2412.09 3421.14 2413.31 3420.93C2414.36 3420.75 2415.42 3420.19 2416.3 3419.61C2418.34 3418.28 2419.74 3416.11 2420.6 3413.85C2421.17 3412.33 2421.49 3410.71 2421.88 3409.14C2422.16 3408.02 2422.37 3406.92 2422.99 3405.92C2423.55 3405.04 2424.33 3404.34 2424.99 3403.54C2425.68 3402.69 2426.44 3402.32 2427.51 3402.08C2428.78 3401.78 2430.21 3401.76 2431.5 3401.99C2432.54 3402.18 2433.42 3402.52 2434.39 3402.95C2436.17 3403.73 2438.02 3404.43 2440 3404.43C2440.69 3404.43 2441.43 3404.55 2442.04 3404.16C2442.72 3403.72 2443.33 3403.14 2443.7 3402.4C2444.52 3400.74 2443.5 3398.3 2442.55 3396.89L2442.52 3396.85C2441.78 3395.75 2441.04 3394.66 2439.99 3393.83C2439.32 3393.29 2438.53 3392.84 2437.76 3392.47C2435.86 3391.55 2433.69 3391.33 2431.76 3390.5C2428.66 3389.16 2428.3 3385.11 2427.98 3382.17C2427.9 3381.44 2427.86 3380.73 2427.46 3380.09C2427.15 3379.61 2426.79 3379.18 2426.44 3378.73C2425.91 3378.07 2425.47 3377.25 2424.71 3376.81C2423.96 3376.38 2423.07 3376.06 2422.19 3376.03C2421.36 3376 2420.47 3375.96 2419.65 3376.09C2418.96 3376.21 2418.48 3376.54 2417.96 3376.99C2417.02 3377.82 2416.21 3378.9 2415.55 3379.96C2414.91 3380.97 2414.48 3382.17 2414.28 3383.35C2414.05 3384.66 2413.77 3385.69 2412.96 3386.77C2412.11 3387.92 2410.86 3387.93 2409.57 3387.81Z" fill="#606060" stroke="#606060" stroke-width="3" stroke-linecap="round"/>
<path d="M2448.14 3407.08C2449.46 3411.49 2454.31 3415.6 2454.31 3420.36C2456.54 3420.36 2458.58 3419.57 2460.95 3419.73C2465.64 3420.06 2463.75 3424.24 2463.48 3427.56C2463.33 3429.37 2463.05 3433.6 2465.23 3434.45C2467.65 3435.4 2470.65 3434.94 2473.11 3434.44C2475.51 3433.95 2480.41 3432.06 2480.22 3429.04C2480.06 3426.41 2478.52 3424.34 2478.02 3421.84C2477.2 3417.69 2478.06 3412.75 2480.8 3409.44C2481.11 3409.06 2484.28 3406.21 2484.86 3407.66C2486.04 3410.6 2487.01 3413.61 2488.88 3416.22C2489.67 3417.31 2493.12 3422.53 2494.87 3421.37C2497.59 3419.58 2502.02 3415.57 2502.02 3412.08C2502.02 3408.86 2500.61 3407.13 2498.16 3405.3C2494.21 3402.35 2492.52 3398.41 2495.92 3394.25C2498.12 3391.55 2502.02 3388.98 2502.89 3385.45C2503.45 3383.13 2501.82 3380.4 2500.11 3378.97C2496.47 3375.94 2489 3375.45 2484.53 3376.51C2478.74 3377.87 2477.28 3385.91 2474.77 3390.24C2473.56 3392.33 2472.44 3395.74 2469.59 3395.74C2468.45 3395.74 2468.02 3394.26 2467.32 3393.48C2465.49 3391.42 2463.97 3389.84 2461.71 3388.22C2460.77 3387.55 2458.67 3385.74 2457.42 3385.74C2456.49 3385.74 2454.94 3387.26 2454.31 3387.83C2451.62 3390.26 2449.3 3393.83 2447.82 3397.11C2446.33 3400.39 2447.14 3403.75 2448.14 3407.08Z" fill="#606060" stroke="#606060" stroke-width="3" stroke-linecap="round"/>
<path d="M2362.81 3380.6C2362.92 3380.62 2363.63 3380.73 2363.71 3380.57C2363.76 3380.75 2363.8 3381 2364.02 3381C2364.35 3381 2364.77 3380.83 2365.02 3380.63C2365.74 3380.04 2366.4 3379.11 2366.74 3378.24C2366.98 3377.61 2367.11 3376.81 2366.88 3376.15C2366.7 3375.59 2366.18 3375.23 2365.72 3374.92C2364.75 3374.28 2363.45 3373.87 2362.3 3374.04C2361.85 3374.1 2361.44 3374.17 2361.1 3374.48C2360.72 3374.81 2360.43 3375.21 2360.26 3375.69C2359.86 3376.88 2359.87 3378.58 2360.66 3379.61C2361.15 3380.26 2362.07 3380.45 2362.81 3380.6Z" fill="#7E7E7E" stroke="#7E7E7E" stroke-width="3" stroke-linecap="round"/>
<path d="M2393.81 3420.66C2393.92 3420.68 2394.63 3420.77 2394.71 3420.63C2394.76 3420.78 2394.8 3421 2395.02 3421C2395.35 3421 2395.77 3420.86 2396.02 3420.68C2396.74 3420.18 2397.4 3419.38 2397.74 3418.64C2397.98 3418.09 2398.11 3417.41 2397.88 3416.84C2397.7 3416.36 2397.18 3416.05 2396.72 3415.79C2395.75 3415.24 2394.45 3414.89 2393.3 3415.03C2392.85 3415.09 2392.44 3415.15 2392.1 3415.41C2391.72 3415.7 2391.43 3416.04 2391.26 3416.45C2390.86 3417.46 2390.87 3418.92 2391.66 3419.81C2392.15 3420.36 2393.07 3420.53 2393.81 3420.66Z" fill="#7E7E7E" stroke="#7E7E7E" stroke-width="3" stroke-linecap="round"/>
<path d="M2401.01 3426.66C2401.09 3426.68 2401.59 3426.77 2401.65 3426.63C2401.69 3426.78 2401.71 3427 2401.87 3427C2402.1 3427 2402.41 3426.86 2402.59 3426.68C2403.1 3426.18 2403.57 3425.38 2403.81 3424.64C2403.99 3424.09 2404.08 3423.41 2403.92 3422.84C2403.78 3422.36 2403.41 3422.05 2403.08 3421.79C2402.39 3421.24 2401.47 3420.89 2400.64 3421.03C2400.32 3421.09 2400.03 3421.15 2399.78 3421.41C2399.51 3421.7 2399.31 3422.04 2399.19 3422.45C2398.9 3423.46 2398.91 3424.92 2399.47 3425.81C2399.82 3426.36 2400.48 3426.53 2401.01 3426.66Z" fill="#7E7E7E" stroke="#7E7E7E" stroke-width="3" stroke-linecap="round"/>
<path d="M2363.41 3366.97C2363.66 3367.21 2364.13 3367.24 2364.45 3367.39C2364.38 3367.49 2364.41 3367.6 2364.32 3367.71C2364.17 3367.89 2364.06 3368.11 2363.9 3368.3C2363.63 3368.62 2363.08 3369.94 2363.87 3369.99C2364.77 3370.05 2366.12 3369.68 2366.37 3368.74C2366.49 3368.32 2366.4 3367.88 2366.72 3367.53C2367 3367.24 2367.32 3367.09 2367.73 3367.09C2368.06 3367.09 2367.96 3367.33 2367.97 3367.58C2367.98 3368.07 2368.23 3368.51 2368.61 3368.81C2369.5 3369.54 2371.07 3369.62 2371.92 3368.79C2372.27 3368.45 2372.8 3367.9 2372.68 3367.37C2372.6 3367.03 2372.33 3366.84 2372.07 3366.63C2371.35 3366.02 2370.01 3365.61 2370.59 3364.44C2370.76 3364.09 2371.14 3363.69 2371.56 3363.69C2372.17 3363.69 2372.68 3363.97 2373.27 3364.03C2373.68 3364.07 2374.12 3364.04 2374.53 3364.04C2374.87 3364.04 2375.22 3364.05 2375.53 3363.91C2376 3363.7 2376.72 3363.17 2376.9 3362.7C2377.16 3362.02 2376.9 3361.09 2376.29 3360.68C2375.74 3360.3 2374.98 3359.9 2374.28 3360.02C2372.84 3360.27 2371.6 3361.25 2370.27 3361.77C2369.4 3362.1 2368.48 3362.07 2367.58 3361.87C2366.8 3361.7 2366.09 3361.24 2365.39 3360.89C2364.33 3360.36 2362.93 3359.91 2361.92 3360.8C2360.93 3361.67 2360.71 3363.78 2361.4 3364.86C2361.93 3365.69 2362.69 3366.3 2363.41 3366.97Z" fill="#606060" stroke="#606060" stroke-width="3" stroke-linecap="round"/>
<path d="M2431.8 3358.67C2431.3 3358.9 2430.86 3358.51 2430.36 3358.2C2429.88 3358.06 2429.5 3357.95 2429.64 3357.88C2428.77 3357.71 2428.16 3356.62 2427.52 3356.09C2426.32 3355.09 2424.24 3354.66 2423.46 3353.22C2422.92 3352.24 2422.88 3351.12 2423.2 3350.07C2423.6 3348.7 2424.47 3347.97 2425.46 3347.02L2425.49 3346.99C2426.55 3345.98 2428.08 3344.51 2429.65 3345.21C2431.69 3346.12 2433.7 3347.02 2435.97 3347.09C2437.63 3347.15 2438.81 3346.23 2439.74 3344.94C2440.53 3343.84 2440.94 3342.6 2441.3 3341.31C2441.56 3340.38 2441.64 3339.31 2442.14 3338.46C2442.65 3337.6 2443.58 3337.42 2444.47 3337.16C2445.64 3336.82 2446.78 3336.7 2448 3336.65C2448.7 3336.62 2449.01 3336.66 2449.47 3337.27C2450.12 3338.14 2450.37 3339.27 2450.78 3340.26C2451.21 3341.31 2452.17 3341.85 2453.33 3341.64C2454.68 3341.4 2455.66 3339.9 2456.3 3338.82C2457 3337.63 2457.66 3336.48 2458.17 3335.19C2458.62 3334.08 2459.27 3332.68 2460.44 3332.15C2461.32 3331.75 2462.55 3332.22 2463.28 3332.73C2464.27 3333.43 2464.71 3334.84 2464.94 3335.99C2465.15 3337.02 2465.37 3338.16 2465.13 3339.2C2464.71 3341.05 2463.62 3342.33 2462.11 3343.44C2461.22 3344.1 2475.14 3357.33 2465.71 3356.09C2464.57 3356.56 2457.86 3348.07 2456.66 3348.18C2454.86 3348.34 2451.98 3345.89 2450.21 3346.16C2448.35 3346.45 2453.37 3350.69 2452.9 3352.46C2452.22 3354.99 2461.18 3353.22 2454.05 3362.47C2454.09 3364.45 2444.18 3360.24 2442.61 3360.65C2441.23 3361.02 2439.79 3361.17 2438.37 3361.26C2437.46 3361.31 2436.45 3361.43 2435.54 3361.28C2434.59 3361.11 2433.81 3360.21 2433.05 3359.69C2432.63 3359.39 2432.09 3359.23 2431.85 3358.73C2431.84 3358.71 2431.82 3358.69 2431.8 3358.67Z" fill="#414141"/>
<path d="M2431.8 3358.67C2431.07 3359 2430.47 3358.03 2429.64 3357.88M2429.64 3357.88C2428.77 3357.71 2428.16 3356.62 2427.52 3356.09C2426.32 3355.09 2424.24 3354.66 2423.46 3353.22C2422.92 3352.24 2422.88 3351.12 2423.2 3350.07C2423.6 3348.7 2424.47 3347.97 2425.46 3347.02C2426.52 3346.01 2428.07 3344.51 2429.65 3345.21C2431.69 3346.12 2433.7 3347.02 2435.97 3347.09C2437.63 3347.15 2438.81 3346.23 2439.74 3344.94C2440.53 3343.84 2440.94 3342.6 2441.3 3341.31C2441.56 3340.38 2441.64 3339.31 2442.14 3338.46C2442.65 3337.6 2443.58 3337.42 2444.47 3337.16C2445.64 3336.82 2446.78 3336.7 2448 3336.65C2448.7 3336.62 2449.01 3336.66 2449.47 3337.27C2450.12 3338.14 2450.37 3339.27 2450.78 3340.26C2451.21 3341.31 2452.17 3341.85 2453.33 3341.64C2454.68 3341.4 2455.66 3339.9 2456.3 3338.82C2457 3337.63 2457.66 3336.48 2458.17 3335.19C2458.62 3334.08 2459.27 3332.68 2460.44 3332.15C2461.32 3331.75 2462.55 3332.22 2463.28 3332.73C2464.27 3333.43 2464.71 3334.84 2464.94 3335.99C2465.15 3337.02 2465.37 3338.16 2465.13 3339.2C2464.71 3341.05 2463.62 3342.33 2462.11 3343.44C2461.22 3344.1 2475.14 3357.33 2465.71 3356.09C2464.57 3356.56 2457.86 3348.07 2456.66 3348.18C2454.86 3348.34 2451.98 3345.89 2450.21 3346.16C2448.35 3346.45 2453.37 3350.69 2452.9 3352.46C2452.22 3354.99 2461.18 3353.22 2454.05 3362.47C2454.09 3364.45 2444.18 3360.24 2442.61 3360.65C2441.23 3361.02 2439.79 3361.17 2438.37 3361.26C2437.46 3361.31 2436.45 3361.43 2435.54 3361.28C2434.59 3361.11 2433.81 3360.21 2433.05 3359.69C2432.63 3359.39 2432.09 3359.23 2431.85 3358.73C2431.71 3358.43 2429.31 3358.04 2429.64 3357.88Z" stroke="#414141" stroke-width="3" stroke-linecap="round"/>
<path d="M2375.69 3338.2C2375.5 3338.54 2375.35 3338.93 2375.15 3339.25C2374.95 3339.25 2375.01 3339.26 2375.01 3339.42C2375.02 3339.77 2375.4 3340.17 2375.69 3340.27C2376.14 3340.43 2376.58 3340.68 2377 3340.91C2377.25 3341.04 2377.59 3341.12 2377.7 3341.43C2377.77 3341.61 2377.69 3341.87 2377.65 3342.05C2377.47 3342.76 2377.8 3343.39 2378.36 3343.78C2378.67 3344 2378.89 3344.02 2379.24 3343.98C2379.66 3343.94 2380.09 3343.86 2380.48 3343.72C2381.12 3343.49 2381.79 3343.24 2381.89 3342.45C2381.95 3341.98 2381.86 3341.53 2382.12 3341.11C2382.26 3340.89 2382.48 3340.66 2382.74 3340.66C2383.28 3340.66 2383.8 3341.04 2384.34 3340.73C2384.96 3340.38 2385.03 3339.6 2384.99 3338.93C2384.97 3338.54 2384.75 3338.28 2384.48 3338.04C2384.27 3337.85 2383.91 3337.84 2383.64 3337.82C2383.04 3337.77 2382.41 3337.81 2381.82 3337.62C2381.07 3337.39 2380.46 3337 2379.85 3336.48C2379.56 3336.23 2379.34 3336.11 2378.98 3336.06C2378.71 3336.01 2378.46 3336 2378.19 3336C2377.82 3336 2377.4 3335.99 2377.07 3336.2C2376.8 3336.37 2376.49 3336.69 2376.28 3336.94C2376.15 3337.11 2376.09 3337.33 2376.01 3337.53C2375.91 3337.76 2375.81 3337.98 2375.69 3338.2Z" fill="#7E7E7E" stroke="#7E7E7E" stroke-width="3" stroke-linecap="round"/>
<path d="M2400.89 3359.18C2398.41 3360.07 2397.86 3362.81 2397 3365.02C2397 3365.74 2397.6 3366.93 2398.01 3367.46C2398.7 3368.33 2399.73 3368.03 2400.44 3367.38C2401.45 3366.45 2401.25 3363.63 2403 3363.6C2404.02 3363.58 2404.93 3364.07 2405.71 3364.68C2406.34 3365.18 2406.75 3365.28 2407.55 3365.19C2409.08 3365.01 2411.4 3364.36 2410.94 3362.33C2410.39 3359.89 2407.77 3359.94 2405.84 3359.81C2404.14 3359.7 2402.59 3358.57 2400.89 3359.18Z" fill="#414141" stroke="#414141" stroke-width="3" stroke-linecap="round"/>
<path d="M2416.32 3392.41C2414.84 3393.06 2414.51 3395.04 2414 3396.65C2414 3397.17 2414.36 3398.03 2414.6 3398.42C2415.01 3399.05 2417.48 3401.22 2416.05 3398.36C2416.65 3397.69 2417.74 3399.37 2418.79 3399.35C2419.39 3399.34 2420.33 3400.83 2421.03 3400.99C2421.72 3401.14 2426.36 3399.92 2425.2 3398.36C2426.11 3398.23 2429.26 3396.94 2428.98 3395.47C2424.81 3382.57 2420.42 3392.97 2419.27 3392.87C2418.25 3392.79 2417.33 3391.97 2416.32 3392.41Z" fill="#414141" stroke="#414141" stroke-width="3" stroke-linecap="round"/>
</svg>
