<svg id="visual" viewBox="0 0 960 540" width="960" height="540" xmlns="http://www.w3.org/2000/svg" xmlns:xlink="http://www.w3.org/1999/xlink" version="1.1"><g fill="none" stroke="#D48616" stroke-width="2"><path d="M0 -30.2L6.8 -9.3L28.7 -9.3L11 3.6L17.8 24.4L0 11.5L-17.8 24.4L-11 3.6L-28.7 -9.3L-6.8 -9.3Z" transform="translate(337 35)"></path><path d="M0 -20.8L4.7 -6.4L19.7 -6.4L7.5 2.5L12.2 16.8L0 7.9L-12.2 16.8L-7.5 2.5L-19.7 -6.4L-4.7 -6.4Z" transform="translate(186 400)"></path><path d="M0 -28.3L6.4 -8.7L26.9 -8.7L10.3 3.3L16.6 22.9L0 10.8L-16.6 22.9L-10.3 3.3L-26.9 -8.7L-6.4 -8.7Z" transform="translate(332 291)"></path><path d="M0 -26.4L5.9 -8.2L25.1 -8.2L9.6 3.1L15.5 21.4L0 10.1L-15.5 21.4L-9.6 3.1L-25.1 -8.2L-5.9 -8.2Z" transform="translate(372 445)"></path><path d="M0 -26.4L5.9 -8.2L25.1 -8.2L9.6 3.1L15.5 21.4L0 10.1L-15.5 21.4L-9.6 3.1L-25.1 -8.2L-5.9 -8.2Z" transform="translate(264 219)"></path><path d="M0 -24.5L5.5 -7.6L23.3 -7.6L8.9 2.9L14.4 19.9L0 9.4L-14.4 19.9L-8.9 2.9L-23.3 -7.6L-5.5 -7.6Z" transform="translate(32 402)"></path><path d="M0 -21.7L4.9 -6.7L20.6 -6.7L7.9 2.6L12.8 17.6L0 8.3L-12.8 17.6L-7.9 2.6L-20.6 -6.7L-4.9 -6.7Z" transform="translate(122 180)"></path><path d="M0 -21.7L4.9 -6.7L20.6 -6.7L7.9 2.6L12.8 17.6L0 8.3L-12.8 17.6L-7.9 2.6L-20.6 -6.7L-4.9 -6.7Z" transform="translate(513 109)"></path><path d="M0 -28.3L6.4 -8.7L26.9 -8.7L10.3 3.3L16.6 22.9L0 10.8L-16.6 22.9L-10.3 3.3L-26.9 -8.7L-6.4 -8.7Z" transform="translate(58 308)"></path><path d="M0 -23.6L5.3 -7.3L22.4 -7.3L8.6 2.8L13.9 19.1L0 9L-13.9 19.1L-8.6 2.8L-22.4 -7.3L-5.3 -7.3Z" transform="translate(625 326)"></path><path d="M0 -21.7L4.9 -6.7L20.6 -6.7L7.9 2.6L12.8 17.6L0 8.3L-12.8 17.6L-7.9 2.6L-20.6 -6.7L-4.9 -6.7Z" transform="translate(661 418)"></path><path d="M0 -25.5L5.7 -7.9L24.2 -7.9L9.3 3L15 20.6L0 9.7L-15 20.6L-9.3 3L-24.2 -7.9L-5.7 -7.9Z" transform="translate(817 134)"></path><path d="M0 -22.7L5.1 -7L21.5 -7L8.2 2.7L13.3 18.3L0 8.7L-13.3 18.3L-8.2 2.7L-21.5 -7L-5.1 -7Z" transform="translate(585 123)"></path><path d="M0 -19.8L4.4 -6.1L18.9 -6.1L7.2 2.3L11.7 16L0 7.6L-11.7 16L-7.2 2.3L-18.9 -6.1L-4.4 -6.1Z" transform="translate(392 190)"></path><path d="M0 -27.4L6.1 -8.5L26 -8.5L9.9 3.2L16.1 22.1L0 10.5L-16.1 22.1L-9.9 3.2L-26 -8.5L-6.1 -8.5Z" transform="translate(163 341)"></path><path d="M0 -27.4L6.1 -8.5L26 -8.5L9.9 3.2L16.1 22.1L0 10.5L-16.1 22.1L-9.9 3.2L-26 -8.5L-6.1 -8.5Z" transform="translate(909 326)"></path><path d="M0 -23.6L5.3 -7.3L22.4 -7.3L8.6 2.8L13.9 19.1L0 9L-13.9 19.1L-8.6 2.8L-22.4 -7.3L-5.3 -7.3Z" transform="translate(811 327)"></path><path d="M0 -27.4L6.1 -8.5L26 -8.5L9.9 3.2L16.1 22.1L0 10.5L-16.1 22.1L-9.9 3.2L-26 -8.5L-6.1 -8.5Z" transform="translate(685 116)"></path><path d="M0 -20.8L4.7 -6.4L19.7 -6.4L7.5 2.5L12.2 16.8L0 7.9L-12.2 16.8L-7.5 2.5L-19.7 -6.4L-4.7 -6.4Z" transform="translate(748 117)"></path><path d="M0 -21.7L4.9 -6.7L20.6 -6.7L7.9 2.6L12.8 17.6L0 8.3L-12.8 17.6L-7.9 2.6L-20.6 -6.7L-4.9 -6.7Z" transform="translate(685 344)"></path><path d="M0 -22.7L5.1 -7L21.5 -7L8.2 2.7L13.3 18.3L0 8.7L-13.3 18.3L-8.2 2.7L-21.5 -7L-5.1 -7Z" transform="translate(426 64)"></path><path d="M0 -26.4L5.9 -8.2L25.1 -8.2L9.6 3.1L15.5 21.4L0 10.1L-15.5 21.4L-9.6 3.1L-25.1 -8.2L-5.9 -8.2Z" transform="translate(248 130)"></path><path d="M0 -25.5L5.7 -7.9L24.2 -7.9L9.3 3L15 20.6L0 9.7L-15 20.6L-9.3 3L-24.2 -7.9L-5.7 -7.9Z" transform="translate(708 204)"></path><path d="M0 -19.8L4.4 -6.1L18.9 -6.1L7.2 2.3L11.7 16L0 7.6L-11.7 16L-7.2 2.3L-18.9 -6.1L-4.4 -6.1Z" transform="translate(721 477)"></path><path d="M0 -22.7L5.1 -7L21.5 -7L8.2 2.7L13.3 18.3L0 8.7L-13.3 18.3L-8.2 2.7L-21.5 -7L-5.1 -7Z" transform="translate(50 503)"></path><path d="M0 -19.8L4.4 -6.1L18.9 -6.1L7.2 2.3L11.7 16L0 7.6L-11.7 16L-7.2 2.3L-18.9 -6.1L-4.4 -6.1Z" transform="translate(234 306)"></path></g></svg>